HIERARCHY
ROOT Hips
{
  OFFSET 46.8093 98.8762 31.412
  CHANNELS 6 Xposition Yposition Zposition Zrotation Xrotation Yrotation
  JOINT spine
  {
    OFFSET 0 8.30104 0.477351
    CHANNELS 3 Zrotation Xrotation Yrotation
    JOINT spine1
    {
      OFFSET 0 10.4565 0
      CHANNELS 3 Zrotation Xrotation Yrotation
      JOINT spine2
      {
        OFFSET 0 10.0192 0
        CHANNELS 3 Zrotation Xrotation Yrotation
        JOINT Neck
        {
          OFFSET 0 25.7235 1.22641
          CHANNELS 3 Zrotation Xrotation Yrotation
          JOINT Head
          {
            OFFSET 0 7.77175 0
            CHANNELS 3 Zrotation Xrotation Yrotation
            End Site
            {
              OFFSET 0 18.812 -6.20394
            }
          }
        }
        JOINT RightShoulder
        {
          OFFSET -4.2188 10.82 -0.587439
          CHANNELS 3 Zrotation Xrotation Yrotation
          JOINT RightArm
          {
            OFFSET 0 14.1914 0
            CHANNELS 3 Zrotation Xrotation Yrotation
            JOINT RightArmRoll
            {
              OFFSET 0 7.16408 0
              CHANNELS 3 Zrotation Xrotation Yrotation
              JOINT RightForeArm
              {
                OFFSET 0 20.8665 0
                CHANNELS 3 Zrotation Xrotation Yrotation
                JOINT RightForeArmRoll
                {
                  OFFSET 0 8.03921 0
                  CHANNELS 3 Zrotation Xrotation Yrotation
                  JOINT RightHand
                  {
                    OFFSET 0 16.133 0
                    CHANNELS 3 Zrotation Xrotation Yrotation
                    End Site
                    {
                      OFFSET 0 0 0
                    }
                  }
                }
              }
            }
          }
        }
        JOINT LeftShoulder
        {
          OFFSET 4.2188 10.82 -0.587439
          CHANNELS 3 Zrotation Xrotation Yrotation
          JOINT LeftArm
          {
            OFFSET 0 14.1914 0
            CHANNELS 3 Zrotation Xrotation Yrotation
            JOINT LeftArmRoll
            {
              OFFSET 0 7.16408 0
              CHANNELS 3 Zrotation Xrotation Yrotation
              JOINT LeftForeArm
              {
                OFFSET 0 20.8665 0
                CHANNELS 3 Zrotation Xrotation Yrotation
                JOINT LeftForeArmRoll
                {
                  OFFSET 0 8.03921 0
                  CHANNELS 3 Zrotation Xrotation Yrotation
                  JOINT LeftHand
                  {
                    OFFSET 0 16.133 0
                    CHANNELS 3 Zrotation Xrotation Yrotation
                    End Site
                    {
                      OFFSET 0 0 0
                    }
                  }
                }
              }
            }
          }
        }
      }
    }
  }
  JOINT RightUpLeg
  {
    OFFSET -7.35773 -1.34921 -1.13182
    CHANNELS 3 Zrotation Xrotation Yrotation
    JOINT RightUpLegRoll
    {
      OFFSET 0 18.9168 0
      CHANNELS 3 Zrotation Xrotation Yrotation
      JOINT RightLeg
      {
        OFFSET 0 -23.4256 0
        CHANNELS 3 Zrotation Xrotation Yrotation
        JOINT RightLegRoll
        {
          OFFSET 0 23.5023 0
          CHANNELS 3 Zrotation Xrotation Yrotation
          JOINT RightFoot
          {
            OFFSET 0 19.5617 0
            CHANNELS 3 Zrotation Xrotation Yrotation
            JOINT RightToeBase
            {
              OFFSET 0 16.3526 0
              CHANNELS 3 Zrotation Xrotation Yrotation
              End Site
              {
                OFFSET 0.00693124 7.91944 -0.912836
              }
            }
          }
        }
      }
    }
  }
  JOINT LeftUpLeg
  {
    OFFSET 7.35773 -1.34921 -1.13182
    CHANNELS 3 Zrotation Xrotation Yrotation
    JOINT LeftUpLegRoll
    {
      OFFSET 0 18.9169 0
      CHANNELS 3 Zrotation Xrotation Yrotation
      JOINT LeftLeg
      {
        OFFSET 0 23.4255 0
        CHANNELS 3 Zrotation Xrotation Yrotation
        JOINT LeftLegRoll
        {
          OFFSET 0 23.7195 0
          CHANNELS 3 Zrotation Xrotation Yrotation
          JOINT LeftFoot
          {
            OFFSET 0 19.3444 0
            CHANNELS 3 Zrotation Xrotation Yrotation
            JOINT LeftToeBase
            {
              OFFSET 0 16.3526 0
              CHANNELS 3 Zrotation Xrotation Yrotation
              End Site
              {
                OFFSET -0.0310629 7.91944 -0.912837
              }
            }
          }
        }
      }
    }
  }
}
MOTION
Frames: 9
Frame Time: 0.00208333
46.9602 98.9467 31.5494 -0.330399 0.448434 -0.552932 -0.0227543 -2.58906 0.0702361 -0.0567595 -1.17546 0.147656 -0.0585744 0.469609 0.148533 3.09 21.2633 -1.01773 -1.81064 0.762652 -0.149743 41.1049 -11.8703 -7.79132 49.4754 32.7091 51.3127 7.06225e-31 6.36111e-15 -6.36111e-15 -5.68292 1.71844 2.38127 -1.26522e-05 6.62255e-06 -3.00826 8.03027 -4.95142 0.69762 -43.3611 -9.14505 5.44963 -54.5297 30.5002 -47.869 -3.56653e-06 -1.93395e-06 -1.38147e-05 7.09538 1.43887 -0.13486 9.77207e-06 1.07545e-05 3.00001 -8.03027 -4.9514 -0.697627 176.114 2.11332 0.335524 180 7.01555e-15 178.957 176.626 5.15224 179.731 -4.3683e-06 2.65562e-06 0.0612392 -18.8173 68.0815 19.611 8.13649 25.2327 -3.48774 -174.17 3.22773 0.353594 4.54188e-06 -4.6773e-06 -1.12157 -3.21875 -10.8804 0.445859 2.43306e-06 -7.34586e-06 -0.161831 19.0708 68.3681 -19.8376 -8.13649 25.2327 3.48774 
46.9651 98.9451 31.546 -0.332485 0.444821 -0.549237 -0.0226089 -2.58816 0.0709989 -0.0564076 -1.17464 0.148935 -0.058244 0.470432 0.149796 3.10109 21.2543 -1.02486 -1.81715 0.770434 -0.153777 41.1098 -11.8729 -7.79363 49.4719 32.6982 51.3061 3.18055e-15 4.77083e-15 -0 -5.67552 1.72411 2.37936 -1.26522e-05 6.62255e-06 -3.00826 8.03027 -4.95142 0.69762 -43.3604 -9.13721 5.44314 -54.5275 30.4995 -47.8708 -3.56653e-06 -1.93395e-06 -1.38147e-05 7.0942 1.43542 -0.134713 9.77207e-06 1.07545e-05 3.00001 -8.03027 -4.9514 -0.697627 176.117 2.10925 0.331995 180 7.01555e-15 178.956 176.63 5.15143 179.731 -4.3683e-06 2.65562e-06 0.0612456 -18.818 68.0825 19.6119 8.13649 25.2327 -3.48774 -174.169 3.22583 0.3533 4.54188e-06 -4.6773e-06 -1.1216 -3.21716 -10.8815 0.446145 2.43306e-06 -7.34586e-06 -0.16231 19.0703 68.3676 -19.8365 -8.13649 25.2327 3.48774 
46.9711 98.944 31.5419 -0.334565 0.441333 -0.545684 -0.0224803 -2.58728 0.0717462 -0.0560541 -1.17387 0.150194 -0.0579116 0.471203 0.151039 3.11165 21.2455 -1.03168 -1.82323 0.777915 -0.15764 41.1144 -11.8754 -7.79581 49.4686 32.6876 51.2997 -3.18055e-15 -7.95139e-15 1.59028e-14 -5.66846 1.72944 2.37752 -1.26522e-05 6.62255e-06 -3.00826 8.03027 -4.95142 0.69762 -43.3598 -9.12951 5.43676 -54.5253 30.4986 -47.8725 -3.56653e-06 -1.93395e-06 -1.38147e-05 7.09284 1.43209 -0.134548 9.77207e-06 1.07545e-05 3.00001 -8.03027 -4.9514 -0.697627 176.12 2.1055 0.328919 180 7.01555e-15 178.956 176.633 5.15093 179.731 -4.3683e-06 2.65562e-06 0.061252 -18.8188 68.0834 19.6127 8.13649 25.2327 -3.48774 -174.168 3.22422 0.353007 4.54188e-06 -4.6773e-06 -1.12162 -3.21557 -10.8829 0.446424 2.43306e-06 -7.34586e-06 -0.162772 19.0699 68.3672 -19.8356 -8.13649 25.2327 3.48774 
46.9689 98.9464 31.5427 -0.336655 0.437981 -0.542287 -0.0223779 -2.58643 0.0724792 -0.0557188 -1.17311 0.151442 -0.0575967 0.471958 0.152272 3.12206 21.2369 -1.03825 -1.82921 0.785102 -0.161303 41.119 -11.8777 -7.79786 49.4652 32.6774 51.2938 3.18055e-15 1.11319e-14 -9.54166e-15 -5.66169 1.73441 2.37577 -1.26522e-05 6.62255e-06 -3.00826 8.03027 -4.95142 0.69762 -43.3589 -9.12216 5.43067 -54.5234 30.4978 -47.8741 -3.56653e-06 -1.93395e-06 -1.38147e-05 7.09143 1.42893 -0.134374 9.77207e-06 1.07545e-05 3.00001 -8.03027 -4.9514 -0.697627 176.123 2.1021 0.32646 180 7.01555e-15 178.956 176.635 5.15076 179.731 -4.3683e-06 2.65562e-06 0.0612583 -18.8195 68.0842 19.6135 8.13649 25.2327 -3.48774 -174.167 3.22298 0.352713 4.54188e-06 -4.6773e-06 -1.12164 -3.21396 -10.8848 0.446696 2.43306e-06 -7.34586e-06 -0.163207 19.0698 68.3671 -19.8349 -8.13649 25.2327 3.48774 
46.9674 98.9471 31.5356 -0.338773 0.434772 -0.539059 -0.0223108 -2.58559 0.073199 -0.0554214 -1.17234 0.152686 -0.0573192 0.472733 0.153504 3.13268 21.2283 -1.04463 -1.83539 0.792004 -0.164737 41.1239 -11.88 -7.79981 49.4615 32.6676 51.2882 1.41245e-30 2.54444e-14 -3.18055e-15 -5.65519 1.73899 2.37411 -1.26522e-05 6.62255e-06 -3.00826 8.03027 -4.95142 0.69762 -43.3573 -9.11538 5.42503 -54.5223 30.4974 -47.8754 -3.56653e-06 -1.93395e-06 -1.38147e-05 7.09011 1.42601 -0.134199 9.77207e-06 1.07545e-05 3.00001 -8.03027 -4.9514 -0.697627 176.126 2.0991 0.324785 180 7.01555e-15 178.956 176.636 5.15101 179.731 -4.3683e-06 2.65562e-06 0.0612645 -18.8202 68.085 19.6142 8.13649 25.2327 -3.48774 -174.166 3.22217 0.352414 4.54188e-06 -4.6773e-06 -1.12166 -3.21232 -10.8872 0.446959 2.43306e-06 -7.34586e-06 -0.163605 19.0699 68.3673 -19.8346 -8.13649 25.2327 3.48774 
46.9678 98.9503 31.5359 -0.340934 0.431716 -0.536013 -0.0222885 -2.58477 0.0739069 -0.0551815 -1.17151 0.153935 -0.0570988 0.473566 0.154742 3.14388 21.2197 -1.05089 -1.84209 0.798629 -0.167914 41.1294 -11.8821 -7.80163 49.4572 32.6582 51.2832 -3.18055e-15 1.11319e-14 -9.54166e-15 -5.64895 1.74316 2.37255 -1.26522e-05 6.62255e-06 -3.00826 8.03027 -4.95142 0.69762 -43.3547 -9.10938 5.42002 -54.5224 30.4977 -47.8764 -3.56653e-06 -1.93395e-06 -1.38147e-05 7.08901 1.42336 -0.134034 9.77207e-06 1.07545e-05 3.00001 -8.03027 -4.9514 -0.697627 176.128 2.09652 0.324059 180 7.01555e-15 178.956 176.636 5.15169 179.732 -4.3683e-06 2.65562e-06 0.0612707 -18.8207 68.0856 19.6148 8.13649 25.2327 -3.48774 -174.165 3.22186 0.35211 4.54188e-06 -4.6773e-06 -1.12169 -3.21063 -10.8903 0.44721 2.43306e-06 -7.34586e-06 -0.163958 19.0704 68.3679 -19.8347 -8.13649 25.2327 3.48774 
46.966 98.9512 31.5412 -0.343155 0.428821 -0.53316 -0.0223201 -2.58395 0.074604 -0.055019 -1.17058 0.155196 -0.056955 0.474492 0.155996 3.15603 21.211 -1.05709 -1.84962 0.804985 -0.170805 41.1356 -11.8842 -7.80335 49.452 32.6493 51.2787 3.18055e-15 -6.36111e-15 9.54166e-15 -5.64293 1.7469 2.3711 -1.26522e-05 6.62255e-06 -3.00826 8.03027 -4.95142 0.69762 -43.3508 -9.10438 5.4158 -54.5241 30.499 -47.8771 -3.56653e-06 -1.93395e-06 -1.38147e-05 7.08825 1.42105 -0.133888 9.77207e-06 1.07545e-05 3.00001 -8.03027 -4.9514 -0.697627 176.129 2.09442 0.324446 180 7.01554e-15 178.956 176.635 5.15287 179.732 -4.3683e-06 2.65562e-06 0.0612768 -18.8211 68.0861 19.6153 8.13649 25.2327 -3.48774 -174.164 3.22214 0.351798 4.54188e-06 -4.6773e-06 -1.12171 -3.2089 -10.8941 0.447448 2.43306e-06 -7.34586e-06 -0.164255 19.0712 68.3688 -19.8353 -8.13649 25.2327 3.48774 
46.9657 98.9485 31.5381 -0.345452 0.426095 -0.530515 -0.0224149 -2.58313 0.0752914 -0.0549534 -1.16952 0.156477 -0.0569076 0.475549 0.157274 3.1695 21.202 -1.06329 -1.8583 0.811081 -0.173381 41.1429 -11.8862 -7.80497 49.4457 32.6408 51.2749 6.36111e-15 -6.36111e-15 -0 -5.6371 1.75018 2.36975 -1.26522e-05 6.62255e-06 -3.00826 8.03027 -4.95142 0.69762 -43.3452 -9.1006 5.41256 -54.528 30.5015 -47.8773 -3.56653e-06 -1.93395e-06 -1.38147e-05 7.08798 1.41912 -0.133769 9.77207e-06 1.07545e-05 3.00001 -8.03027 -4.9514 -0.697627 176.13 2.09283 0.326112 180 7.01554e-15 178.956 176.632 5.15462 179.732 -4.3683e-06 2.65562e-06 0.0612829 -18.8213 68.0863 19.6155 8.13649 25.2327 -3.48774 -174.163 3.22306 0.351476 4.54188e-06 -4.6773e-06 -1.12173 -3.20709 -10.8987 0.447671 2.43306e-06 -7.34586e-06 -0.164487 19.0724 68.3703 -19.8363 -8.13649 25.2327 3.48774 
46.972 98.9487 31.5352 -0.347842 0.423548 -0.528089 -0.0225822 -2.58231 0.0759704 -0.0550045 -1.1683 0.157787 -0.0569763 0.476774 0.158585 3.18465 21.1926 -1.06954 -1.86842 0.816925 -0.175614 41.1515 -11.8881 -7.80648 49.4381 32.6329 51.2718 3.18055e-15 2.54444e-14 -1.27222e-14 -5.63145 1.753 2.36851 -1.26522e-05 6.62255e-06 -3.00826 8.03027 -4.95142 0.69762 -43.3375 -9.09825 5.41045 -54.5343 30.5055 -47.877 -3.56653e-06 -1.93395e-06 -1.38147e-05 7.08832 1.41764 -0.133687 9.77207e-06 1.07545e-05 3.00001 -8.03027 -4.9514 -0.697627 176.13 2.09178 0.329223 180 7.01554e-15 178.956 176.627 5.15696 179.733 -4.3683e-06 2.65562e-06 0.0612889 -18.8213 68.0864 19.6156 8.13649 25.2327 -3.48774 -174.161 3.2247 0.351141 4.54188e-06 -4.6773e-06 -1.12175 -3.20522 -10.9043 0.447877 2.43306e-06 -7.34586e-06 -0.164644 19.0741 68.3722 -19.838 -8.13649 25.2327 3.48774 
